<svg width="141" height="66" viewBox="0 0 141 66" fill="none" xmlns="http://www.w3.org/2000/svg">
<path d="M16.021 33.8661C15.9215 32.8635 15.4948 32.0846 14.7408 31.5295C13.9867 30.9743 12.9634 30.6967 11.6708 30.6967C10.7925 30.6967 10.0509 30.821 9.44602 31.0696C8.84115 31.3099 8.37713 31.6455 8.05398 32.0763C7.73911 32.5072 7.58168 32.9961 7.58168 33.543C7.5651 33.9987 7.66039 34.3964 7.86754 34.7362C8.08298 35.0759 8.37713 35.37 8.75 35.6186C9.12287 35.8589 9.55374 36.0702 10.0426 36.2525C10.5315 36.4265 11.0535 36.5756 11.6087 36.6999L13.8956 37.2468C15.0059 37.4954 16.0251 37.8268 16.9531 38.2411C17.8812 38.6554 18.6849 39.165 19.3643 39.7699C20.0438 40.3748 20.57 41.0874 20.9428 41.9077C21.324 42.728 21.5187 43.6684 21.527 44.729C21.5187 46.2868 21.121 47.6374 20.3338 48.7809C19.5549 49.9161 18.428 50.7985 16.9531 51.4283C15.4865 52.0497 13.7174 52.3604 11.646 52.3604C9.59103 52.3604 7.80125 52.0456 6.27663 51.4158C4.7603 50.7861 3.5754 49.8539 2.72195 48.6193C1.87678 47.3764 1.43348 45.8394 1.39205 44.0082H6.59979C6.65779 44.8616 6.90223 45.5742 7.3331 46.146C7.77225 46.7094 8.35642 47.1361 9.08558 47.4261C9.82304 47.7079 10.6558 47.8487 11.5838 47.8487C12.4953 47.8487 13.2866 47.7161 13.9577 47.451C14.6372 47.1858 15.1634 46.8171 15.5362 46.3448C15.9091 45.8725 16.0955 45.3298 16.0955 44.7166C16.0955 44.1449 15.9257 43.6643 15.5859 43.2749C15.2545 42.8854 14.7656 42.554 14.1193 42.2805C13.4813 42.0071 12.6983 41.7585 11.7702 41.5348L8.99858 40.8388C6.85251 40.3168 5.15803 39.5006 3.91513 38.3903C2.67223 37.2799 2.05492 35.7843 2.06321 33.9034C2.05492 32.3622 2.46508 31.0157 3.29368 29.864C4.13056 28.7122 5.27817 27.8132 6.73651 27.1669C8.19484 26.5206 9.85204 26.1974 11.7081 26.1974C13.5973 26.1974 15.2462 26.5206 16.6548 27.1669C18.0717 27.8132 19.1738 28.7122 19.9609 29.864C20.7481 31.0157 21.1541 32.3498 21.179 33.8661H16.021ZM38.9555 33.8661C38.8561 32.8635 38.4294 32.0846 37.6753 31.5295C36.9213 30.9743 35.898 30.6967 34.6054 30.6967C33.7271 30.6967 32.9855 30.821 32.3806 31.0696C31.7757 31.3099 31.3117 31.6455 30.9885 32.0763C30.6737 32.5072 30.5162 32.9961 30.5162 33.543C30.4997 33.9987 30.595 34.3964 30.8021 34.7362C31.0175 35.0759 31.3117 35.37 31.6846 35.6186C32.0574 35.8589 32.4883 36.0702 32.9772 36.2525C33.4661 36.4265 33.9881 36.5756 34.5432 36.6999L36.8302 37.2468C37.9405 37.4954 38.9597 37.8268 39.8877 38.2411C40.8157 38.6554 41.6195 39.165 42.2989 39.7699C42.9784 40.3748 43.5045 41.0874 43.8774 41.9077C44.2586 42.728 44.4533 43.6684 44.4616 44.729C44.4533 46.2868 44.0555 47.6374 43.2684 48.7809C42.4895 49.9161 41.3626 50.7985 39.8877 51.4283C38.4211 52.0497 36.652 52.3604 34.5805 52.3604C32.5256 52.3604 30.7358 52.0456 29.2112 51.4158C27.6949 50.7861 26.51 49.8539 25.6565 48.6193C24.8113 47.3764 24.368 45.8394 24.3266 44.0082H29.5344C29.5924 44.8616 29.8368 45.5742 30.2677 46.146C30.7068 46.7094 31.291 47.1361 32.0202 47.4261C32.7576 47.7079 33.5903 47.8487 34.5184 47.8487C35.4298 47.8487 36.2211 47.7161 36.8923 47.451C37.5718 47.1858 38.0979 46.8171 38.4708 46.3448C38.8437 45.8725 39.0301 45.3298 39.0301 44.7166C39.0301 44.1449 38.8602 43.6643 38.5205 43.2749C38.1891 42.8854 37.7002 42.554 37.0539 42.2805C36.4159 42.0071 35.6328 41.7585 34.7048 41.5348L31.9332 40.8388C29.7871 40.3168 28.0926 39.5006 26.8497 38.3903C25.6068 37.2799 24.9895 35.7843 24.9978 33.9034C24.9895 32.3622 25.3997 31.0157 26.2282 29.864C27.0651 28.7122 28.2127 27.8132 29.6711 27.1669C31.1294 26.5206 32.7866 26.1974 34.6427 26.1974C36.5319 26.1974 38.1808 26.5206 39.5894 27.1669C41.0063 27.8132 42.1083 28.7122 42.8955 29.864C43.6827 31.0157 44.0887 32.3498 44.1135 33.8661H38.9555ZM48.0815 52V26.5455H53.4632V37.0479H64.3883V26.5455H69.7576V52H64.3883V41.4851H53.4632V52H48.0815Z" fill="#989898"/>
<path d="M136 30.51V34.3125C136 44.0625 136 48.94 133.07 51.97C130.14 55 125.43 55 116 55M134.7 19.5575C133.405 17.185 131.032 15.715 126.29 12.77L121.29 9.6675C116.277 6.555 113.77 5 111 5C108.23 5 105.725 6.555 100.71 9.6675L95.71 12.77C90.9675 15.715 88.6 17.185 87.3 19.5575C86.5075 21.0075 86.2 22.64 86.08 25M108.5 55C108.5 49.0326 106.129 43.3097 101.91 39.0901C97.6903 34.8705 91.9674 32.5 86 32.5" stroke="#989898" stroke-width="3.75" stroke-linecap="round"/>
<path d="M101 55C101 51.0218 99.4196 47.2064 96.6066 44.3934C93.7936 41.5804 89.9782 40 86 40M93.5 55C93.5 53.0109 92.7098 51.1032 91.3033 49.6967C89.8968 48.2902 87.9891 47.5 86 47.5" stroke="#989898" stroke-width="3.75" stroke-linecap="round"/>
</svg>
