<svg width="14" height="14" viewBox="0 0 14 14" fill="none" xmlns="http://www.w3.org/2000/svg">
<g id="material-symbols:timer-outline">
<path id="Vector" d="M5.25 1.74998V0.583313H8.75V1.74998H5.25ZM6.41667 8.16665H7.58333V4.66665H6.41667V8.16665ZM7 12.8333C6.28056 12.8333 5.60233 12.6949 4.96533 12.418C4.32833 12.1411 3.77183 11.7643 3.29583 11.2875C2.81983 10.8107 2.44319 10.254 2.16592 9.6174C1.88864 8.98078 1.75 8.30276 1.75 7.58331C1.75 6.86387 1.88864 6.18565 2.16592 5.54865C2.44319 4.91165 2.81983 4.35515 3.29583 3.87915C3.77183 3.40315 4.32853 3.02651 4.96592 2.74923C5.60331 2.47195 6.28133 2.33331 7 2.33331C7.60278 2.33331 8.18125 2.43054 8.73542 2.62498C9.28958 2.81942 9.80972 3.10137 10.2958 3.47081L11.1125 2.65415L11.9292 3.47081L11.1125 4.28748C11.4819 4.77359 11.7639 5.29373 11.9583 5.8479C12.1528 6.40206 12.25 6.98054 12.25 7.58331C12.25 8.30276 12.1114 8.98098 11.8341 9.61798C11.5568 10.255 11.1802 10.8115 10.7042 11.2875C10.2282 11.7635 9.67147 12.1403 9.03408 12.418C8.39669 12.6956 7.71867 12.8341 7 12.8333ZM7 11.6666C8.12778 11.6666 9.09028 11.268 9.8875 10.4708C10.6847 9.67359 11.0833 8.71109 11.0833 7.58331C11.0833 6.45553 10.6847 5.49304 9.8875 4.69581C9.09028 3.89859 8.12778 3.49998 7 3.49998C5.87222 3.49998 4.90972 3.89859 4.1125 4.69581C3.31528 5.49304 2.91667 6.45553 2.91667 7.58331C2.91667 8.71109 3.31528 9.67359 4.1125 10.4708C4.90972 11.268 5.87222 11.6666 7 11.6666Z" fill="black"/>
</g>
</svg>
